<svg xmlns="http://www.w3.org/2000/svg" width="1200" height="650" viewBox="0 0 1200 650">
<rect width="100%" height="100%" fill="#10151f"/>
<text x="600.0" y="48" text-anchor="middle" font-family="Inter, Helvetica, Arial" font-size="34" font-weight="700" fill="#f6f4ee">Closed-loop ADE smoke comparison</text>
<text x="32" y="312.5" transform="rotate(-90 32 312.5)" text-anchor="middle" font-family="Inter, Helvetica, Arial" font-size="22" fill="#b7c0d8">meters</text>
<line x1="120" y1="530.0" x2="1130" y2="530.0" stroke="#273246" stroke-width="1"/>
<text x="102" y="537.0" text-anchor="end" font-family="Inter, Helvetica, Arial" font-size="18" fill="#8d99b3">0.00</text>
<line x1="120" y1="443.0" x2="1130" y2="443.0" stroke="#273246" stroke-width="1"/>
<text x="102" y="450.0" text-anchor="end" font-family="Inter, Helvetica, Arial" font-size="18" fill="#8d99b3">0.21</text>
<line x1="120" y1="356.0" x2="1130" y2="356.0" stroke="#273246" stroke-width="1"/>
<text x="102" y="363.0" text-anchor="end" font-family="Inter, Helvetica, Arial" font-size="18" fill="#8d99b3">0.42</text>
<line x1="120" y1="269.0" x2="1130" y2="269.0" stroke="#273246" stroke-width="1"/>
<text x="102" y="276.0" text-anchor="end" font-family="Inter, Helvetica, Arial" font-size="18" fill="#8d99b3">0.63</text>
<line x1="120" y1="182.0" x2="1130" y2="182.0" stroke="#273246" stroke-width="1"/>
<text x="102" y="189.0" text-anchor="end" font-family="Inter, Helvetica, Arial" font-size="18" fill="#8d99b3">0.84</text>
<line x1="120" y1="95.0" x2="1130" y2="95.0" stroke="#273246" stroke-width="1"/>
<text x="102" y="102.0" text-anchor="end" font-family="Inter, Helvetica, Arial" font-size="18" fill="#8d99b3">1.05</text>
<line x1="120" y1="530" x2="1130" y2="530" stroke="#6c7893" stroke-width="2"/>
<text x="625.0" y="578" text-anchor="middle" font-family="Inter, Helvetica, Arial" font-size="23" font-weight="650" fill="#f6f4ee">ADE</text>
<rect x="534.0" y="172.3" width="82" height="357.7" rx="10" fill="#45b39d"/>
<text x="575.0" y="160.3" text-anchor="middle" font-family="Inter, Helvetica, Arial" font-size="18" fill="#f6f4ee">0.863</text>
<rect x="634.0" y="205.4" width="82" height="324.6" rx="10" fill="#e76f51"/>
<text x="675.0" y="193.4" text-anchor="middle" font-family="Inter, Helvetica, Arial" font-size="18" fill="#f6f4ee">0.784</text>
<rect x="870" y="95" width="18" height="18" rx="4" fill="#45b39d"/>
<text x="900" y="110" font-family="Inter, Helvetica, Arial" font-size="18" fill="#dfe5f2">BC</text>
<rect x="870" y="117" width="18" height="18" rx="4" fill="#e76f51"/>
<text x="900" y="132" font-family="Inter, Helvetica, Arial" font-size="18" fill="#dfe5f2">CLSFT</text>
<text x="1110" y="615" text-anchor="end" font-family="Inter, Helvetica, Arial" font-size="18" fill="#e9c46a">lower is better</text>
</svg>