<svg xmlns="http://www.w3.org/2000/svg" width="1200" height="650" viewBox="0 0 1200 650">
<rect width="100%" height="100%" fill="#10151f"/>
<text x="600.0" y="48" text-anchor="middle" font-family="Inter, Helvetica, Arial" font-size="34" font-weight="700" fill="#f6f4ee">Matched 4-batch baseline smoke: closed-loop signals</text>
<text x="32" y="312.5" transform="rotate(-90 32 312.5)" text-anchor="middle" font-family="Inter, Helvetica, Arial" font-size="22" fill="#b7c0d8">score</text>
<line x1="120" y1="530.0" x2="1130" y2="530.0" stroke="#273246" stroke-width="1"/>
<text x="102" y="537.0" text-anchor="end" font-family="Inter, Helvetica, Arial" font-size="18" fill="#8d99b3">0.35</text>
<line x1="120" y1="443.0" x2="1130" y2="443.0" stroke="#273246" stroke-width="1"/>
<text x="102" y="450.0" text-anchor="end" font-family="Inter, Helvetica, Arial" font-size="18" fill="#8d99b3">0.45</text>
<line x1="120" y1="356.0" x2="1130" y2="356.0" stroke="#273246" stroke-width="1"/>
<text x="102" y="363.0" text-anchor="end" font-family="Inter, Helvetica, Arial" font-size="18" fill="#8d99b3">0.55</text>
<line x1="120" y1="269.0" x2="1130" y2="269.0" stroke="#273246" stroke-width="1"/>
<text x="102" y="276.0" text-anchor="end" font-family="Inter, Helvetica, Arial" font-size="18" fill="#8d99b3">0.66</text>
<line x1="120" y1="182.0" x2="1130" y2="182.0" stroke="#273246" stroke-width="1"/>
<text x="102" y="189.0" text-anchor="end" font-family="Inter, Helvetica, Arial" font-size="18" fill="#8d99b3">0.76</text>
<line x1="120" y1="95.0" x2="1130" y2="95.0" stroke="#273246" stroke-width="1"/>
<text x="102" y="102.0" text-anchor="end" font-family="Inter, Helvetica, Arial" font-size="18" fill="#8d99b3">0.86</text>
<line x1="120" y1="530" x2="1130" y2="530" stroke="#6c7893" stroke-width="2"/>
<text x="288.33333333333337" y="578" text-anchor="middle" font-family="Inter, Helvetica, Arial" font-size="23" font-weight="650" fill="#f6f4ee">RMM</text>
<rect x="197.3" y="234.3" width="82" height="295.7" rx="10" fill="#45b39d"/>
<text x="238.3" y="222.3" text-anchor="middle" font-family="Inter, Helvetica, Arial" font-size="18" fill="#f6f4ee">0.697</text>
<rect x="297.3" y="216.0" width="82" height="314.0" rx="10" fill="#e76f51"/>
<text x="338.3" y="204.0" text-anchor="middle" font-family="Inter, Helvetica, Arial" font-size="18" fill="#f6f4ee">0.718</text>
<text x="625.0" y="578" text-anchor="middle" font-family="Inter, Helvetica, Arial" font-size="23" font-weight="650" fill="#f6f4ee">Interaction</text>
<rect x="534.0" y="171.7" width="82" height="358.3" rx="10" fill="#45b39d"/>
<text x="575.0" y="159.7" text-anchor="middle" font-family="Inter, Helvetica, Arial" font-size="18" fill="#f6f4ee">0.770</text>
<rect x="634.0" y="155.7" width="82" height="374.3" rx="10" fill="#e76f51"/>
<text x="675.0" y="143.7" text-anchor="middle" font-family="Inter, Helvetica, Arial" font-size="18" fill="#f6f4ee">0.789</text>
<text x="961.6666666666667" y="578" text-anchor="middle" font-family="Inter, Helvetica, Arial" font-size="23" font-weight="650" fill="#f6f4ee">Map</text>
<rect x="870.7" y="169.7" width="82" height="360.3" rx="10" fill="#45b39d"/>
<text x="911.7" y="157.7" text-anchor="middle" font-family="Inter, Helvetica, Arial" font-size="18" fill="#f6f4ee">0.772</text>
<rect x="970.7" y="139.7" width="82" height="390.3" rx="10" fill="#e76f51"/>
<text x="1011.7" y="127.7" text-anchor="middle" font-family="Inter, Helvetica, Arial" font-size="18" fill="#f6f4ee">0.808</text>
<rect x="870" y="95" width="18" height="18" rx="4" fill="#45b39d"/>
<text x="900" y="110" font-family="Inter, Helvetica, Arial" font-size="18" fill="#dfe5f2">BC</text>
<rect x="870" y="117" width="18" height="18" rx="4" fill="#e76f51"/>
<text x="900" y="132" font-family="Inter, Helvetica, Arial" font-size="18" fill="#dfe5f2">CLSFT</text>
</svg>